<svg width="100" height="56" viewBox="0 0 100 56" fill="none" xmlns="http://www.w3.org/2000/svg">
<path d="M87.8282 40.5531C87.4871 35.2475 82.5022 30.9112 77.2025 31.2003C73.6431 31.4128 70.5997 32.5777 68.3871 34.5758C66.2094 36.5484 65.055 39.2267 65.2299 41.9134C65.3261 43.3844 66.5767 44.5068 68.0722 44.5068C68.1336 44.5068 68.1946 44.5068 68.2471 44.4998C68.5095 44.4859 68.7456 44.3894 68.9818 44.304C69.1129 44.763 69.2791 45.2052 69.489 45.6304C70.8095 48.2917 73.5906 50.1452 76.8352 50.1452C80.3946 50.1452 83.3943 47.9176 84.5224 44.8311C84.6711 44.4228 84.7848 43.9979 84.8635 43.5643C86.4114 43.4455 87.9244 42.0593 87.8282 40.5544L87.8282 40.5531ZM76.8264 46.5048C74.3864 46.5048 72.4012 44.5747 72.4012 42.2025C72.4012 39.8304 74.3864 37.9002 76.8264 37.9002C79.2752 37.9002 81.2516 39.8304 81.2516 42.2025C81.2516 44.5747 79.2752 46.5048 76.8264 46.5048ZM36.3087 40.5531C35.9676 35.2475 30.9914 30.9112 25.6742 31.2003C22.1148 31.4128 19.0714 32.5777 16.8588 34.5758C14.6812 36.5484 13.5268 39.2267 13.7017 41.9134C13.7979 43.3844 15.0485 44.5068 16.5439 44.5068C16.6054 44.5068 16.6664 44.5068 16.7189 44.4998C16.9812 44.4859 17.2174 44.3894 17.4535 44.304C17.5847 44.763 17.7508 45.2052 17.9607 45.6304C19.2813 48.2917 22.0623 50.1452 25.3069 50.1452C28.8663 50.1452 31.866 47.9176 32.9942 44.8311C33.1428 44.4145 33.2565 43.9894 33.3352 43.5558C34.8832 43.428 36.4049 42.0508 36.3087 40.5544L36.3087 40.5531ZM25.3156 46.5048C22.8757 46.5048 20.8904 44.5747 20.8904 42.2025C20.8904 39.8304 22.8669 37.9002 25.3156 37.9002C27.7556 37.9002 29.7409 39.8304 29.7409 42.2025C29.7409 44.5747 27.7556 46.5048 25.3156 46.5048ZM89.9971 36.0382H89.2362L89.1488 35.7236C86.7875 27.1106 78.7679 21.1247 69.6027 21.1247H69.1479L67.2589 12.8688C66.2619 8.50704 62.2827 5.41211 57.7001 5.41211H51.1497C33.0292 5.41211 17.0249 16.865 11.6377 33.6745L10.8769 36.0382H9.9936C8.41941 36.0382 7.14258 37.2796 7.14258 38.81C7.14258 40.3405 8.41941 41.5818 9.9936 41.5818H12.3024C12.2674 39.6433 12.8271 37.7387 13.8853 36.0467C14.4363 35.1625 15.0747 34.3122 15.8968 33.5725C18.3455 31.3533 21.7038 30.0609 25.5868 29.8229C30.0732 29.5507 34.3322 32.2036 36.4136 36.0467C37.1483 37.3986 37.6293 38.8951 37.7255 40.4766C37.7519 40.8592 37.699 41.2247 37.6292 41.5818H63.8219C63.7869 39.6433 64.3466 37.7387 65.4048 36.0467C65.9558 35.1625 66.5942 34.3122 67.4163 33.5725C69.865 31.3533 73.2233 30.0609 77.1063 29.8229C81.5577 29.5507 85.8342 32.2036 87.9244 36.0467C88.6678 37.3986 89.14 38.8951 89.245 40.4766C89.2714 40.8592 89.2185 41.2247 89.1488 41.5818H90.0058C91.58 41.5818 92.8568 40.3405 92.8568 38.81C92.8483 37.2796 91.5713 36.0382 89.9971 36.0382H89.9971ZM46.9082 11.1343C46.9082 9.9269 47.8789 8.94065 49.1208 8.88961C49.4619 8.87572 49.8029 8.86183 50.144 8.86183H55.2251C58.7845 8.86183 61.8629 11.2595 62.6325 14.635L63.4546 18.2486C63.6032 18.9118 63.4375 19.6091 62.9998 20.1447C62.5625 20.6718 61.8979 20.9864 61.1983 20.9864H49.217C47.9401 20.9864 46.9082 19.9832 46.9082 18.7418V11.132L46.9082 11.1343ZM27.7381 20.9972C27.1959 20.9972 26.7062 20.6827 26.4963 20.2065C26.2776 19.7218 26.3826 19.1607 26.7499 18.7781C30.5455 14.8414 35.3467 11.908 40.6989 10.3011C41.3986 10.0886 42.1682 10.2163 42.7541 10.6413C43.3488 11.0663 43.6899 11.7382 43.6899 12.4524V18.7527C43.6899 19.9941 42.6579 20.9975 41.3811 20.9975H27.7382L27.7381 20.9972Z" fill="white"/>
</svg>
