<svg width="100" height="56" viewBox="0 0 100 56" fill="none" xmlns="http://www.w3.org/2000/svg">
<path d="M87.6856 40.5531C87.3446 35.2475 82.3596 30.9112 77.0599 31.2003C73.5005 31.4128 70.4571 32.5777 68.2445 34.5758C66.0669 36.5484 64.9124 39.2267 65.0874 41.9134C65.1836 43.3844 66.4342 44.5068 67.9296 44.5068C67.9911 44.5068 68.0521 44.5068 68.1046 44.4998C68.3669 44.4859 68.6031 44.3894 68.8392 44.304C68.9703 44.763 69.1365 45.2052 69.3464 45.6304C70.667 48.2917 73.448 50.1452 76.6926 50.1452C80.252 50.1452 83.2517 47.9176 84.3799 44.8311C84.5285 44.4228 84.6422 43.9979 84.7209 43.5643C86.2689 43.4455 87.7818 42.0593 87.6856 40.5544L87.6856 40.5531ZM76.6838 46.5048C74.2439 46.5048 72.2586 44.5747 72.2586 42.2025C72.2586 39.8304 74.2439 37.9002 76.6838 37.9002C79.1326 37.9002 81.109 39.8304 81.109 42.2025C81.109 44.5747 79.1326 46.5048 76.6838 46.5048ZM36.1661 40.5531C35.825 35.2475 30.8489 30.9112 25.5316 31.2003C21.9722 31.4128 18.9288 32.5777 16.7162 34.5758C14.5386 36.5484 13.3842 39.2267 13.5591 41.9134C13.6553 43.3844 14.9059 44.5068 16.4014 44.5068C16.4628 44.5068 16.5238 44.5068 16.5763 44.4998C16.8386 44.4859 17.0748 44.3894 17.3109 44.304C17.4421 44.763 17.6083 45.2052 17.8181 45.6304C19.1387 48.2917 21.9197 50.1452 25.1643 50.1452C28.7237 50.1452 31.7234 47.9176 32.8516 44.8311C33.0002 44.4145 33.1139 43.9894 33.1927 43.5558C34.7406 43.428 36.2623 42.0508 36.1661 40.5544L36.1661 40.5531ZM25.1731 46.5048C22.7331 46.5048 20.7479 44.5747 20.7479 42.2025C20.7479 39.8304 22.7243 37.9002 25.1731 37.9002C27.6131 37.9002 29.5983 39.8304 29.5983 42.2025C29.5983 44.5747 27.6131 46.5048 25.1731 46.5048ZM89.8545 36.0382H89.0937L89.0062 35.7236C86.645 27.1106 78.6254 21.1247 69.4601 21.1247H69.0053L67.1163 12.8688C66.1193 8.50704 62.1401 5.41211 57.5575 5.41211H51.0072C32.8866 5.41211 16.8824 16.865 11.4952 33.6745L10.7343 36.0382H9.85102C8.27684 36.0382 7 37.2796 7 38.81C7 40.3405 8.27684 41.5818 9.85102 41.5818H12.1598C12.1248 39.6433 12.6845 37.7387 13.7427 36.0467C14.2937 35.1625 14.9321 34.3122 15.7542 33.5725C18.2029 31.3533 21.5612 30.0609 25.4442 29.8229C29.9306 29.5507 34.1896 32.2036 36.2711 36.0467C37.0057 37.3986 37.4867 38.8951 37.5829 40.4766C37.6093 40.8592 37.5565 41.2247 37.4867 41.5818H63.6793C63.6443 39.6433 64.2041 37.7387 65.2623 36.0467C65.8133 35.1625 66.4516 34.3122 67.2737 33.5725C69.7225 31.3533 73.0807 30.0609 76.9637 29.8229C81.4151 29.5507 85.6917 32.2036 87.7818 36.0467C88.5252 37.3986 88.9975 38.8951 89.1024 40.4766C89.1288 40.8592 89.076 41.2247 89.0062 41.5818H89.8632C91.4374 41.5818 92.7143 40.3405 92.7143 38.81C92.7057 37.2796 91.4287 36.0382 89.8545 36.0382H89.8545ZM46.7656 11.1343C46.7656 9.9269 47.7364 8.94065 48.9782 8.88961C49.3193 8.87572 49.6604 8.86183 50.0014 8.86183H55.0826C58.642 8.86183 61.7204 11.2595 62.49 14.635L63.312 18.2486C63.4607 18.9118 63.2949 19.6091 62.8572 20.1447C62.42 20.6718 61.7553 20.9864 61.0557 20.9864H49.0744C47.7976 20.9864 46.7656 19.9832 46.7656 18.7418V11.132L46.7656 11.1343ZM27.5956 20.9972C27.0533 20.9972 26.5636 20.6827 26.3537 20.2065C26.1351 19.7218 26.24 19.1607 26.6073 18.7781C30.4029 14.8414 35.2041 11.908 40.5564 10.3011C41.256 10.0886 42.0256 10.2163 42.6115 10.6413C43.2063 11.0663 43.5473 11.7382 43.5473 12.4524V18.7527C43.5473 19.9941 42.5153 20.9975 41.2385 20.9975H27.5956L27.5956 20.9972Z" fill="#22264C"/>
</svg>
