<svg width="30" height="30" viewBox="0 0 30 30" fill="none" xmlns="http://www.w3.org/2000/svg">
<path d="M9.91992 10.3945C9.91992 10.2656 10.0254 10.1602 10.1543 10.1602L12.0879 10.1689L15 13.6406L17.9092 10.1719L19.8457 10.1631C19.9746 10.1631 20.0801 10.2656 20.0801 10.3975C20.0801 10.4531 20.0596 10.5059 20.0244 10.5498L16.2129 15.0908L20.0244 19.6289C20.0598 19.6718 20.0795 19.7256 20.0801 19.7813C20.0801 19.9102 19.9746 20.0156 19.8457 20.0156L17.9092 20.0068L15 16.5352L12.0908 20.0039L10.1572 20.0127C10.0283 20.0127 9.92285 19.9102 9.92285 19.7783C9.92285 19.7227 9.94336 19.6699 9.97851 19.626L13.7842 15.0879L9.97266 10.5469C9.9375 10.5059 9.91992 10.4502 9.91992 10.3945Z" fill="black"/>
<path d="M15 1.9043C22.248 1.9043 28.125 7.78125 28.125 15.0293C28.125 22.2773 22.248 28.1543 15 28.1543C7.75195 28.1543 1.875 22.2773 1.875 15.0293C1.875 7.78125 7.75195 1.9043 15 1.9043ZM15 25.9277C21.0176 25.9277 25.8984 21.0469 25.8984 15.0293C25.8984 9.01172 21.0176 4.13086 15 4.13086C8.98242 4.13086 4.10156 9.01172 4.10156 15.0293C4.10156 21.0469 8.98242 25.9277 15 25.9277Z" fill="black"/>
</svg>
