<svg width="27" height="35" viewBox="0 0 27 35" fill="none" xmlns="http://www.w3.org/2000/svg">
<g clip-path="url(#clip0_6_732)">
<path d="M6.74414 20.6875H6.21289V17.5H6.74414C7.62734 17.5 8.33789 18.2105 8.33789 19.0938C8.33789 19.977 7.62734 20.6875 6.74414 20.6875ZM13.6504 17.5H14.1816C14.766 17.5 15.2441 17.9781 15.2441 18.5625V22.8125C15.2441 23.3969 14.766 23.875 14.1816 23.875H13.6504V17.5ZM15.7754 0.5V9C15.7754 10.1754 16.725 11.125 17.9004 11.125H26.4004V30.25C26.4004 32.5941 24.4945 34.5 22.1504 34.5H5.15039C2.80293 34.5 0.900391 32.5941 0.900391 30.25V4.75C0.900391 2.40254 2.80293 0.5 5.15039 0.5H15.7754ZM5.15039 15.375C4.56336 15.375 4.08789 15.8531 4.08789 16.4375V24.9375C4.08789 25.5219 4.56336 26 5.15039 26C5.73742 26 6.21289 25.5219 6.21289 24.9375V22.8125H6.74414C8.79609 22.8125 10.4629 21.1457 10.4629 19.0938C10.4629 17.0418 8.79609 15.375 6.74414 15.375H5.15039ZM11.5254 24.9375C11.5254 25.5219 12.0035 26 12.5879 26H14.1816C15.9414 26 17.3691 24.5723 17.3691 22.8125V18.5625C17.3691 16.8027 15.9414 15.375 14.1816 15.375H12.5879C12.0035 15.375 11.5254 15.8531 11.5254 16.4375V24.9375ZM20.0254 15.375C19.441 15.375 18.9629 15.8531 18.9629 16.4375V24.9375C18.9629 25.5219 19.441 26 20.0254 26C20.6098 26 21.0879 25.5219 21.0879 24.9375V21.75H23.2129C23.7973 21.75 24.2754 21.2719 24.2754 20.6875C24.2754 20.1031 23.7973 19.625 23.2129 19.625H21.0879V17.5H23.2129C23.7973 17.5 24.2754 17.0219 24.2754 16.4375C24.2754 15.8531 23.7973 15.375 23.2129 15.375H20.0254ZM17.9004 0.5L26.4004 9H17.9004V0.5Z" fill="black"/>
</g>
<defs>
<clipPath id="clip0_6_732">
<rect width="25.5" height="34" fill="white" transform="translate(0.900391 0.5)"/>
</clipPath>
</defs>
</svg>
