<svg width="25" height="25" viewBox="0 0 25 25" fill="none" xmlns="http://www.w3.org/2000/svg">
<path fill-rule="evenodd" clip-rule="evenodd" d="M25 12.5C25 19.4031 19.4031 25 12.5 25C5.59687 25 0 19.4031 0 12.5C0 5.59687 5.59687 0 12.5 0C19.4031 0 25 5.59687 25 12.5ZM12.9479 9.22812C11.7323 9.73333 9.30208 10.7802 5.65833 12.3677C5.06667 12.6031 4.75625 12.8333 4.72812 13.0583C4.68021 13.4396 5.15729 13.5896 5.80521 13.7927C5.89375 13.8208 5.98542 13.849 6.07917 13.8802C6.71771 14.0875 7.57604 14.3302 8.02188 14.3396C8.42708 14.3479 8.87917 14.1812 9.37813 13.8396C12.7823 11.5406 14.5396 10.3792 14.65 10.3542C14.7281 10.3365 14.8365 10.3135 14.9094 10.3792C14.9823 10.4437 14.975 10.5667 14.9677 10.6C14.9198 10.801 13.051 12.5396 12.0823 13.4396C11.7802 13.7198 11.5667 13.9187 11.5229 13.9646C11.425 14.0656 11.325 14.1625 11.2292 14.2552C10.6354 14.826 10.1917 15.2552 11.2542 15.9552C11.7646 16.2917 12.1729 16.5698 12.5802 16.8469C13.025 17.15 13.4688 17.4521 14.0437 17.8292C14.1896 17.925 14.3292 18.024 14.4656 18.1208C14.9833 18.4906 15.449 18.8219 16.024 18.7698C16.3573 18.7385 16.7031 18.425 16.8781 17.4885C17.2917 15.274 18.1062 10.4781 18.2948 8.50104C18.3063 8.33689 18.2993 8.17197 18.274 8.00937C18.2588 7.87805 18.1949 7.75722 18.0948 7.67083C17.9458 7.54896 17.7146 7.52292 17.6104 7.525C17.1406 7.53333 16.4198 7.78437 12.9479 9.22812Z" fill="#F8F8F8"/>
</svg>
