<svg width="25" height="25" viewBox="0 0 25 25" fill="none" xmlns="http://www.w3.org/2000/svg">
<path d="M12.5 0.5C5.8725 0.5 0.5 5.8725 0.5 12.5C0.5 19.1275 5.8725 24.5 12.5 24.5C19.1275 24.5 24.5 19.1275 24.5 12.5C24.5 5.8725 19.1275 0.5 12.5 0.5ZM17.115 14.0388C17.115 14.0388 18.1763 15.0863 18.4375 15.5725C18.445 15.5825 18.4487 15.5925 18.4513 15.5975C18.5575 15.7762 18.5825 15.915 18.53 16.0188C18.4425 16.1912 18.1425 16.2763 18.04 16.2838H16.165C16.035 16.2838 15.7625 16.25 15.4325 16.0225C15.1788 15.845 14.9288 15.5538 14.685 15.27C14.3213 14.8475 14.0063 14.4825 13.6888 14.4825C13.6484 14.4824 13.6083 14.4888 13.57 14.5013C13.33 14.5788 13.0225 14.9213 13.0225 15.8337C13.0225 16.1188 12.7975 16.2825 12.6388 16.2825H11.78C11.4875 16.2825 9.96375 16.18 8.61375 14.7563C6.96125 13.0125 5.47375 9.515 5.46125 9.4825C5.3675 9.25625 5.56125 9.135 5.7725 9.135H7.66625C7.91875 9.135 8.00125 9.28875 8.05875 9.425C8.12625 9.58375 8.37375 10.215 8.78 10.925C9.43875 12.0825 9.8425 12.5525 10.1663 12.5525C10.227 12.5518 10.2866 12.5363 10.34 12.5075C10.7625 12.2725 10.6838 10.7662 10.665 10.4537C10.665 10.395 10.6637 9.78 10.4475 9.485C10.2925 9.27125 10.0287 9.19 9.86875 9.16C9.93351 9.07064 10.0188 8.99818 10.1175 8.94875C10.4075 8.80375 10.93 8.7825 11.4488 8.7825H11.7375C12.3 8.79 12.445 8.82625 12.6488 8.8775C13.0613 8.97625 13.07 9.2425 13.0338 10.1538C13.0225 10.4125 13.0113 10.705 13.0113 11.05C13.0113 11.125 13.0075 11.205 13.0075 11.29C12.995 11.7537 12.98 12.28 13.3075 12.4963C13.3502 12.523 13.3996 12.5373 13.45 12.5375C13.5638 12.5375 13.9062 12.5375 14.8337 10.9463C15.1198 10.4341 15.3684 9.90185 15.5775 9.35375C15.5963 9.32125 15.6513 9.22125 15.7163 9.1825C15.7642 9.15804 15.8174 9.14561 15.8713 9.14625H18.0975C18.34 9.14625 18.5063 9.1825 18.5375 9.27625C18.5925 9.425 18.5275 9.87875 17.5112 11.255L17.0575 11.8538C16.1363 13.0613 16.1363 13.1225 17.115 14.0388Z" fill="#F8F8F8"/>
</svg>
