<svg width="29" height="29" viewBox="0 0 29 29" fill="none" xmlns="http://www.w3.org/2000/svg">
<path d="M2.42184 26.5837L4.05551 20.5807C2.97905 18.7354 2.4135 16.6367 2.41701 14.5003C2.41701 7.8267 7.82672 2.41699 14.5003 2.41699C21.174 2.41699 26.5837 7.8267 26.5837 14.5003C26.5837 21.174 21.174 26.5837 14.5003 26.5837C12.3649 26.5871 10.2671 26.022 8.42242 24.9464L2.42184 26.5837ZM10.1395 8.83083C9.98343 8.84051 9.83095 8.88161 9.69118 8.95166C9.5601 9.02589 9.44044 9.11868 9.33593 9.22716C9.19093 9.3637 9.10876 9.48212 9.02055 9.59691C8.57396 10.1781 8.33375 10.8915 8.33784 11.6245C8.34026 12.2166 8.49493 12.793 8.73659 13.3319C9.2308 14.4218 10.044 15.5757 11.1182 16.6451C11.3768 16.9025 11.6293 17.1611 11.9012 17.4015C13.2345 18.5754 14.8233 19.4219 16.5412 19.8738L17.2288 19.9789C17.4523 19.991 17.6758 19.9741 17.9006 19.9632C18.2525 19.945 18.5961 19.8497 18.9071 19.6841C19.0654 19.6026 19.2198 19.5139 19.3699 19.4182C19.3699 19.4182 19.4219 19.3844 19.521 19.3095C19.6841 19.1887 19.7844 19.1029 19.9197 18.9615C20.02 18.8576 20.107 18.7355 20.1735 18.5966C20.2677 18.3996 20.362 18.0238 20.4006 17.7109C20.4296 17.4716 20.4212 17.3411 20.4175 17.2602C20.4127 17.1309 20.3052 16.9967 20.188 16.94L19.4847 16.6246C19.4847 16.6246 18.4335 16.1666 17.7918 15.8742C17.7242 15.8447 17.6517 15.8279 17.578 15.8247C17.4953 15.8162 17.4118 15.8255 17.333 15.8519C17.2542 15.8784 17.182 15.9214 17.1212 15.9781V15.9757C17.1152 15.9757 17.0342 16.0446 16.1606 17.1031C16.1104 17.1705 16.0414 17.2214 15.9622 17.2494C15.883 17.2773 15.7973 17.2811 15.7159 17.2602C15.6372 17.2391 15.5601 17.2125 15.4851 17.1804C15.3353 17.1176 15.2833 17.0934 15.1806 17.0487L15.1746 17.0463C14.4833 16.7445 13.8433 16.3368 13.2775 15.838C13.1253 15.705 12.9839 15.56 12.8389 15.4199C12.3635 14.9646 11.9492 14.4496 11.6064 13.8877L11.5351 13.7729C11.4839 13.6958 11.4425 13.6126 11.4118 13.5252C11.3659 13.3476 11.4856 13.205 11.4856 13.205C11.4856 13.205 11.7792 12.8836 11.9157 12.7096C12.0294 12.565 12.1355 12.4145 12.2335 12.2589C12.3761 12.0293 12.4208 11.7937 12.3459 11.6112C12.0076 10.7847 11.6571 9.96183 11.2971 9.14499C11.2258 8.98308 11.0143 8.86708 10.8222 8.84412C10.7569 8.83687 10.6917 8.82962 10.6264 8.82478C10.4642 8.81672 10.3015 8.81834 10.1395 8.82962V8.83083Z" fill="#F8F8F8"/>
</svg>
